<?xml version="1.0" standalone="no"?>
<!DOCTYPE svg PUBLIC "-//W3C//DTD SVG 20010904//EN"
 "http://www.w3.org/TR/2001/REC-SVG-20010904/DTD/svg10.dtd">
<svg version="1.0" xmlns="http://www.w3.org/2000/svg"
 width="512.000000pt" height="512.000000pt" viewBox="0 0 512.000000 512.000000"
 preserveAspectRatio="xMidYMid meet">
<metadata>
Created by potrace 1.14, written by Peter Selinger 2001-2017
</metadata>
<g transform="translate(0.000000,512.000000) scale(0.100000,-0.100000)"
fill="#000000" stroke="none">
<path d="M2380 4945 c-184 -30 -338 -91 -489 -192 -86 -58 -215 -178 -266
-248 -17 -22 -32 -42 -35 -45 -6 -6 -37 -53 -63 -95 -49 -83 -117 -253 -131
-330 -3 -17 -8 -41 -11 -55 -14 -63 -19 -175 -20 -425 l0 -270 265 -3 265 -2
1 282 c1 228 4 297 18 353 31 130 91 232 190 328 236 228 601 246 866 42 51
-40 112 -105 134 -144 5 -9 12 -18 15 -21 20 -17 77 -148 86 -198 3 -15 7 -38
11 -52 3 -14 7 -151 8 -305 l1 -280 266 -3 265 -2 -1 302 c-2 320 -5 353 -40
486 -84 326 -322 616 -632 771 -76 38 -187 76 -285 97 -93 20 -320 25 -418 9z"/>
<path d="M997 3009 c-100 -34 -173 -91 -227 -176 -66 -104 -63 -48 -64 -1213
-1 -580 2 -1080 7 -1110 22 -158 160 -304 322 -340 62 -14 2987 -14 3052 0
159 35 297 181 320 340 5 30 8 530 7 1110 -1 966 -3 1060 -18 1113 -42 141
-165 254 -310 287 -31 7 -540 10 -1539 10 -1465 -1 -1493 -1 -1550 -21z m1720
-785 c75 -36 144 -116 171 -198 26 -79 27 -121 7 -201 -18 -68 -45 -114 -98
-165 l-36 -35 -1 -269 c-1 -214 -4 -277 -16 -305 -64 -153 -280 -163 -362 -17
-14 27 -17 70 -20 312 l-3 281 -36 33 c-75 71 -113 164 -108 262 4 79 7 94 38
154 85 165 292 232 464 148z"/>
</g>
</svg>
